PathFileType	4	(X/Y/Z)	/Users/niels/Desktop/University/Third Semester/Perception and Action/Exam/Gymnastics Motion Tracking/Code for Gym Tracking/Analyzed Data/Webcam_Backflip/id2_5_baseline_Sports2D/id2_5_baseline_Sports2D_px_person00.trc
DataRate	CameraRate	NumFrames	NumMarkers	Units	OrigDataRate	OrigDataStartFrame	OrigNumFrames
29.875	29.875	11	22	m	29.875	150	240
Frame#	Time	Hip			RHip			RKnee			RAnkle			RBigToe			RSmallToe			RHeel			LHip			LKnee			LAnkle			LBigToe			LSmallToe			LHeel			Neck			Head			Nose			RShoulder			RElbow			RWrist			LShoulder			LElbow			LWrist		
		X1	Y1	Z1	X2	Y2	Z2	X3	Y3	Z3	X4	Y4	Z4	X5	Y5	Z5	X6	Y6	Z6	X7	Y7	Z7	X8	Y8	Z8	X9	Y9	Z9	X10	Y10	Z10	X11	Y11	Z11	X12	Y12	Z12	X13	Y13	Z13	X14	Y14	Z14	X15	Y15	Z15	X16	Y16	Z16	X17	Y17	Z17	X18	Y18	Z18	X19	Y19	Z19	X20	Y20	Z20	X21	Y21	Z21	X22	Y22	Z22
150	5.02092050209205	0.9247948133971756	-0.5967161195525078	0.0	0.9227143365627678	-0.5943309094379053	0.0	0.9274507021814187	-0.7013587500198123	0.0	0.9094072002726529	-0.8134525910965922	0.0	0.9438591658412483	-0.8269941953835009	0.0	0.9307892307666772	-0.8339954403575892	0.0	0.9031973727890056	-0.8308930066733127	0.0	0.9290862111136872	-0.5919098422974094	0.0	0.9341992895650579	-0.6992134552686657	0.0	0.9245672440274214	-0.8044936476279116	0.0	0.9613561545032709	-0.8172226592479753	0.0	0.9605703608247308	-0.8116616321597871	0.0	0.9177155639769172	-0.821051240394399	0.0	0.927816329952544	-0.43533793341822863	0.0	0.9498672814004561	-0.35593652308532175	0.0	0.9495611167354375	-0.39676170752376005	0.0	0.9220672834925061	-0.4417970213052981	0.0	0.9275207026715785	-0.3530331246489626	0.0	0.9308749680118271	-0.28553887534435785	0.0	0.9239725760964842	-0.4429517206919906	0.0	0.9320802040435147	-0.3592967903573646	0.0	0.9309869554738969	-0.2989942742201033	0.0
151	5.05439330543933	0.9255723253404118	-0.5940280252187106	0.0	0.9233121744978328	-0.5913859543829819	0.0	0.928523960913431	-0.6979453245618962	0.0	0.908826775308765	-0.8099043548462289	0.0	0.9441115448218605	-0.824098218326787	0.0	0.9309476760273622	-0.8309017377056819	0.0	0.9021806335330875	-0.8275084313062813	0.0	0.9299601440055574	-0.5891176484164694	0.0	0.935667694199763	-0.6957506112406645	0.0	0.9249366431757774	-0.8004387552703879	0.0	0.9613239158373797	-0.813884971529854	0.0	0.9603980966422911	-0.8081591463660754	0.0	0.9180377216502987	-0.8165486364690625	0.0	0.9281663161680703	-0.43215747029934337	0.0	0.9502156239054551	-0.3529669431107873	0.0	0.9502831793830294	-0.39345125962219485	0.0	0.9223607952909513	-0.4384780209588568	0.0	0.9275939808456459	-0.3500993694366805	0.0	0.9312439249971652	-0.2827930145556835	0.0	0.9243565644254832	-0.4397815455067055	0.0	0.9325004907800881	-0.3567157400009254	0.0	0.9312735833373856	-0.2960567019703735	0.0
152	5.087866108786611	0.9266389155561613	-0.5892801747098325	0.0	0.9242384797015151	-0.586453258986169	0.0	0.9296691470586744	-0.6926152651749425	0.0	0.9084237479059287	-0.8048223181873295	0.0	0.9445767112173654	-0.8198094309041883	0.0	0.9314866731142157	-0.8263255850487167	0.0	0.9011975618040308	-0.8225787563201848	0.0	0.931067735679058	-0.5844345686999813	0.0	0.9371230181336525	-0.6904251789539629	0.0	0.924911326514912	-0.7948407583233158	0.0	0.9611908240493238	-0.8092812855534794	0.0	0.9599213405602006	-0.8033778224208038	0.0	0.9178908400090354	-0.8104126057504937	0.0	0.928716274884061	-0.4266647264175802	0.0	0.9509314111616832	-0.34777826925933114	0.0	0.9513153671054339	-0.38816513811818765	0.0	0.9227560874960069	-0.432840651620876	0.0	0.9278493125253249	-0.34511644128806407	0.0	0.931805570879105	-0.2776913011174878	0.0	0.9249718196277523	-0.43430353861982257	0.0	0.9331203117794458	-0.35207157230140723	0.0	0.9317495333230859	-0.29052401975564124	0.0
153	5.121338912133891	0.927899114892134	-0.5829570837576155	0.0	0.9254349342835658	-0.580132685350514	0.0	0.9307248281079782	-0.6857517346945307	0.0	0.908295664213671	-0.7986068312561306	0.0	0.9450795432451998	-0.8143080233166659	0.0	0.9322358518721233	-0.8205367454471368	0.0	0.9004371678219233	-0.8163749313042399	0.0	0.9323649488533484	-0.5783361240292177	0.0	0.9384397171090869	-0.6836303002590095	0.0	0.9245866210665864	-0.7881846234289036	0.0	0.9609810280048031	-0.803653053402169	0.0	0.9592813817394793	-0.7975991703412688	0.0	0.9173330488861239	-0.8031500166819583	0.0	0.9294526066947209	-0.41934764889434173	0.0	0.9519701219177549	-0.3408801336467759	0.0	0.9524825319252099	-0.38142444346573673	0.0	0.9231801287560625	-0.42548333411254957	0.0	0.9282629948075048	-0.33852960913588137	0.0	0.9324542650852022	-0.2708099042660686	0.0	0.9258298380915432	-0.427129937134908	0.0	0.9337907054271362	-0.34577662706350404	0.0	0.9323819474394244	-0.28324895286163904	0.0
154	5.154811715481171	0.9292183009089184	-0.5755755369863014	0.0	0.9267689263409662	-0.5729509142672404	0.0	0.9315900102022073	-0.6777750433178804	0.0	0.9083888838872628	-0.7916622524641298	0.0	0.9454604317939812	-0.8079623969424414	0.0	0.9329411895988426	-0.8139496632113628	0.0	0.8998847933554488	-0.8092799875733795	0.0	0.9338003574369192	-0.5712893550364165	0.0	0.9396196473606003	-0.675815792444891	0.0	0.9242325998305799	-0.7809301234537143	0.0	0.9607705868921491	-0.7972838644650274	0.0	0.9586546439993715	-0.7911248039792956	0.0	0.9166715629208645	-0.7952783501661224	0.0	0.9303175811426921	-0.4109705054158262	0.0	0.9531946353233671	-0.33301401505259176	0.0	0.9536018593717321	-0.373878310675467	0.0	0.9236108922182341	-0.4171982980451509	0.0	0.9287875801595898	-0.3309792997887699	0.0	0.9331586568760463	-0.2630468992274512	0.0	0.9268764531630381	-0.4190319646496665	0.0	0.9343657728077086	-0.3384792515449107	0.0	0.9331930507412951	-0.2752836812614646	0.0
155	5.188284518828452	0.9304703785518277	-0.5676660262643304	0.0	0.9280687215568377	-0.5653632437818727	0.0	0.9322598538029434	-0.6692333579440153	0.0	0.9085749247732954	-0.7844522766169187	0.0	0.945672453425927	-0.8013556379965875	0.0	0.933436557191287	-0.8071758822531752	0.0	0.899413995438129	-0.8018490543816018	0.0	0.935282378210946	-0.5637874503782646	0.0	0.9406618107683783	-0.6675635625498016	0.0	0.9239736591322392	-0.7735917757118175	0.0	0.960554783681298	-0.790688853863125	0.0	0.9580962298286049	-0.7844665889488955	0.0	0.9160866228731137	-0.7873761529852603	0.0	0.9312296221814478	-0.40245746025741114	0.0	0.9544233821232111	-0.3250785498514467	0.0	0.9545578874515668	-0.36624417032492124	0.0	0.9241021589181228	-0.4088170609901608	0.0	0.9293374149068335	-0.32322508265276845	0.0	0.9339500112751148	-0.25537480026550774	0.0	0.9280350309598445	-0.4108005980819882	0.0	0.9347884254253715	-0.33093734409605824	0.0	0.9342016758922043	-0.2675341335188745	0.0
156	5.221757322175732	0.9316055615501516	-0.5598613469428222	0.0	0.9291909826978503	-0.5578797840640278	0.0	0.9327831408140218	-0.6608715839793704	0.0	0.9087595208696162	-0.7775285173042052	0.0	0.9457937902940826	-0.795143019264388	0.0	0.9337130909798776	-0.8009035786763125	0.0	0.8989573526206402	-0.7947794991220691	0.0	0.9367270434765322	-0.5564022885170448	0.0	0.9415157430440982	-0.6596232958535898	0.0	0.923785442466923	-0.7667409859863564	0.0	0.9602826803442771	-0.7845417310581249	0.0	0.9575955328223079	-0.7782876650918515	0.0	0.9155360341269912	-0.7800863349846042	0.0	0.9321148092134544	-0.39467556892158523	0.0	0.955470487724838	-0.3179451858139284	0.0	0.9553101405440884	-0.35918271338439656	0.0	0.924715511395442	-0.40110362247456854	0.0	0.9298341107487337	-0.31600703885609516	0.0	0.9348383461567346	-0.24857667626120175	0.0	0.9292706926929423	-0.4031798363424952	0.0	0.9351063099740625	-0.3238640637116727	0.0	0.9353898555966008	-0.2606149283974491	0.0
157	5.2552301255230125	0.9326400365216136	-0.5528666990337474	0.0	0.9300995382190574	-0.5511245413597898	0.0	0.9331891482520452	-0.6535940231256513	0.0	0.9089308685285061	-0.7715174421356165	0.0	0.9459543425959163	-0.7899398175927658	0.0	0.9338834145911872	-0.7957489616512191	0.0	0.8985689052560631	-0.7888036661140363	0.0	0.9380825835915123	-0.5497767492636635	0.0	0.9421176240229089	-0.6528447744775412	0.0	0.9236516902971608	-0.7609586975645758	0.0	0.9599980873526642	-0.7794808104576105	0.0	0.9572035142099209	-0.773214864447567	0.0	0.9149191323394545	-0.7740609180798322	0.0	0.9329373463325153	-0.38827219979913435	0.0	0.956219791255459	-0.3122812703930017	0.0	0.9558656022289608	-0.3532147266813911	0.0	0.92544735877826	-0.39469644516219876	0.0	0.9302537969355794	-0.30993785980329247	0.0	0.9357687247656018	-0.24312592987822784	0.0	0.9305931964454057	-0.39680853610997074	0.0	0.9354226385043666	-0.31786060666044835	0.0	0.9367145531078271	-0.25488203688074995	0.0
158	5.2887029288702925	0.933604687330801	-0.5472900278151828	0.0	0.9308645379650891	-0.5457288895029968	0.0	0.9334757226538692	-0.6482408262136962	0.0	0.9091253985513136	-0.7670467330974394	0.0	0.9462350705074267	-0.7862728398107711	0.0	0.9340921896894496	-0.7921768272986709	0.0	0.8983535079599696	-0.7845524952532145	0.0	0.9393012734593036	-0.5445443751215466	0.0	0.9424021385798377	-0.6479754623751459	0.0	0.9235604920440291	-0.7567913257689501	0.0	0.9598253519103096	-0.776017083442496	0.0	0.9570109473812697	-0.7697490447982327	0.0	0.9141620482576411	-0.7698604119941896	0.0	0.9337202928216997	-0.38364295503236545	0.0	0.9566858670120896	-0.30846183768767793	0.0	0.9562668031228474	-0.3487306880304564	0.0	0.9262212415646641	-0.3900461968647981	0.0	0.9306223912935186	-0.305455681663401	0.0	0.9366451574383782	-0.23921284637159748	0.0	0.9320094376231841	-0.39214322742813207	0.0	0.9358472831651573	-0.3134186365626721	0.0	0.9381234083708516	-0.2505682619603179	0.0
159	5.3221757322175725	0.9345306900011299	-0.5435683389635395	0.0	0.9315967774070474	-0.5421896390063132	0.0	0.9336400850411768	-0.6453141428568334	0.0	0.9093709839217387	-0.7645953326841458	0.0	0.9466029425033586	-0.7844881612348306	0.0	0.9343922562901819	-0.7904538183609806	0.0	0.8983837913149485	-0.7824067754118699	0.0	0.9403234317054534	-0.5412094837274375	0.0	0.9423314123883316	-0.6454439004548732	0.0	0.9234898627594906	-0.7546314199132782	0.0	0.9598251308572427	-0.7744592908345823	0.0	0.9570480366599521	-0.7681903051102018	0.0	0.9133133342827154	-0.7678133828639484	0.0	0.9345234506219416	-0.380994829673519	0.0	0.9569931228529335	-0.3065838114007798	0.0	0.9566027618855573	-0.3460302899400399	0.0	0.9269559033031327	-0.3874090289429713	0.0	0.9310176809075038	-0.30278838618483794	0.0	0.9373928915057804	-0.23684315217534324	0.0	0.9334590089743624	-0.3894454963443599	0.0	0.9364659248553825	-0.31087194739094487	0.0	0.9395207489955256	-0.24786469510136144	0.0
160	5.355648535564853	0.9354233257652954	-0.5419867109969319	0.0	0.9324040867679575	-0.5408050344058786	0.0	0.9336836348684833	-0.6449101971062291	0.0	0.9096814578612135	-0.764344828749118	0.0	0.9469426085564383	-0.7846563069290883	0.0	0.9347122756064532	-0.7906127887291193	0.0	0.8986711149491587	-0.7824107036009778	0.0	0.9410835902494112	-0.5400304960854663	0.0	0.9419268076382487	-0.6453044442441646	0.0	0.9234579784286233	-0.7545685406709588	0.0	0.9599612975879966	-0.7748319222477018	0.0	0.957257426401967	-0.7685568738084839	0.0	0.9125903329940368	-0.7679251169266805	0.0	0.9353780357042296	-0.380394857081789	0.0	0.9573386189945726	-0.3065391257599528	0.0	0.9569863663143355	-0.34528987088247676	0.0	0.9276283981390789	-0.3868719859929202	0.0	0.9315296279935514	-0.30197139911298676	0.0	0.9380032628588981	-0.23597868482727125	0.0	0.934808198466247	-0.38880965220012137	0.0	0.9373128674098067	-0.31032949047696595	0.0	0.9407662426979327	-0.24688674877139694	0.0
